# xmcd
#
# Track frame offsets:
#	150
#	21074
#	39049
#	58022
#	84190
#	108420
#	143297
#	165022
#	180184
#	193359
#	211622
#	238572
#	252412
#	270450
#	283842
#
# Disc length: 4011 seconds
#
# Revision: 0
# Processed by: cddbd v1.5.1PL0 Copyright (c) Steve Scherf et al.
# Submitted via: audiograbber 1.83.01
#
DISCID=b40fa90f
DTITLE=Blues Company - mixed up
DYEAR=1900
DGENRE=Blues
TTITLE0=Big Bad Wolf - Blues Company
TTITLE1=Blues 4 breakfast - Blues Company
TTITLE2=Change - Blues Company
TTITLE3=Cold Rain - Blues Company
TTITLE4=Crippled mind - Blues Company
TTITLE5=Downhome Blues - Blues Company
TTITLE6=Fool - Blues Company
TTITLE7=Gotta get loaded - Blues Company
TTITLE8=Overflow - Blues Company
TTITLE9=Red blood - Blues Company
TTITLE10=Silent Nite - Blues Company
TTITLE11=Someone to love - Blues Company
TTITLE12=The Midnite Train - Blues Company
TTITLE13=The rythm of Zydeco - Blues Company
TTITLE14=Walk on - Blues Company
EXTD=
EXTT0=
EXTT1=
EXTT2=
EXTT3=
EXTT4=
EXTT5=
EXTT6=
EXTT7=
EXTT8=
EXTT9=
EXTT10=
EXTT11=
EXTT12=
EXTT13=
EXTT14=
PLAYORDER=
